<svg width="17" height="18" viewBox="0 0 17 18" fill="none" xmlns="http://www.w3.org/2000/svg">
<path d="M6.85667 8.75159C6.85667 8.75159 8.44333 8.63825 8.44333 6.65492C8.5 4.67159 7.14 3.70825 5.49667 3.70825H0V14.7016H5.49667C5.49667 14.7016 8.84 14.8149 8.84 11.4716C8.84 11.4716 9.01 8.75159 6.85667 8.75159ZM2.43667 5.63492H5.49667C5.49667 5.63492 6.23333 5.63492 6.23333 6.76825C6.23333 7.90159 5.78 8.07159 5.27 8.07159H2.43667V5.63492ZM5.32667 12.7183H2.43667V9.77158H5.49667C5.49667 9.77158 6.63 9.77158 6.63 11.3016C6.57333 12.6049 5.78 12.7183 5.32667 12.7183ZM13.3167 6.48492C9.23667 6.48492 9.23667 10.7349 9.23667 10.7349C9.23667 10.7349 8.95333 14.9283 13.3167 14.9283C13.3167 14.9283 16.9433 15.1549 16.9433 11.9816H15.0733C15.0733 11.9816 15.13 13.1716 13.3733 13.1716C13.3733 13.1716 11.5033 13.2849 11.5033 11.2449H16.9433C16.9433 11.2449 17.5667 6.48492 13.3167 6.48492ZM14.96 9.82825H11.5033C11.5033 9.82825 11.73 8.12825 13.3733 8.12825C15.0167 8.12825 14.96 9.82825 14.96 9.82825ZM15.4133 4.33159H11.05V5.69159H15.4133V4.33159Z" fill="white"/>
</svg>
