<svg width="17" height="18" fill="none" xmlns="http://www.w3.org/2000/svg"><path d="M6.857 8.752s1.586-.114 1.586-2.097C8.5 4.672 7.14 3.708 5.497 3.708H0v10.994h5.497s3.343.113 3.343-3.23c0 0 .17-2.72-1.983-2.72Zm-4.42-3.117h3.06s.736 0 .736 1.133c0 1.134-.453 1.304-.963 1.304H2.437V5.635Zm2.89 7.083h-2.89V9.772h3.06s1.133 0 1.133 1.53c-.057 1.303-.85 1.416-1.303 1.416Zm7.99-6.233c-4.08 0-4.08 4.25-4.08 4.25s-.284 4.193 4.08 4.193c0 0 3.626.227 3.626-2.946h-1.87s.057 1.19-1.7 1.19c0 0-1.87.113-1.87-1.927h5.44s.624-4.76-3.626-4.76Zm1.643 3.343h-3.457s.227-1.7 1.87-1.7c1.644 0 1.587 1.7 1.587 1.7Zm.453-5.496H11.05v1.36h4.363v-1.36Z" fill="#fff"/></svg>