<svg width="17" height="18" fill="none" xmlns="http://www.w3.org/2000/svg"><g clip-path="url(#a)"><path d="M14.167 2.008h-11.9c-.964 0-1.7.737-1.7 1.7v11.9c0 .964.736 1.7 1.7 1.7h11.9c.963 0 1.7-.736 1.7-1.7v-11.9c0-.963-.737-1.7-1.7-1.7Zm-5.95 12.354a4.692 4.692 0 0 0 4.703-4.704c0-.283-.057-.566-.113-.85h1.36v6.12c0 .34-.284.567-.567.567H2.833a.568.568 0 0 1-.566-.567v-6.12H3.57c-.057.284-.113.567-.113.85.056 2.607 2.153 4.704 4.76 4.704ZM5.27 9.658a2.927 2.927 0 0 1 2.947-2.946 2.926 2.926 0 0 1 2.946 2.946 2.927 2.927 0 0 1-2.946 2.947c-1.644 0-2.947-1.36-2.947-2.947Zm8.33-3.4h-1.36a.568.568 0 0 1-.567-.566V4.275c0-.34.284-.567.567-.567h1.36c.34 0 .567.284.567.567v1.36c0 .34-.284.623-.567.623Z" fill="#fff"/></g><defs><clipPath id="a"><path fill="#fff" transform="translate(0 .875)" d="M0 0h17v17H0z"/></clipPath></defs></svg>